<svg viewBox="0 0 24 24" xmlns="http://www.w3.org/2000/svg">
  <defs>
    <linearGradient id="grad" x1="0%" y1="0%" x2="100%" y2="0%">
      <stop offset="0%" style="stop-color:#7c3aed;stop-opacity:1" />
      <stop offset="50%" style="stop-color:#6366f1;stop-opacity:1" />
      <stop offset="100%" style="stop-color:#06b6d4;stop-opacity:1" />
    </linearGradient>
  </defs>
  <rect width="24" height="24" rx="4" fill="url(#grad)"/>
  <path fill="white" d="M20 6a1 1 0 0 1 1 1v11.5a1.5 1.5 0 0 1-1.5 1.5H4a1 1 0 1 1 0-2h14V7a1 1 0 0 1 1-1Zm-1.7 2.7a1 1 0 0 1 0 1.4l-4.8 4.8a1 1 0 0 1-1.4 0l-2.1-2.1-2.9 2.9a1 1 0 0 1-1.4-1.4l3.6-3.6a1 1 0 0 1 1.4 0l2.1 2.1 4.1-4.1a1 1 0 0 1 1.4 0Z"/>
</svg>
